<?xml version="1.0" encoding="UTF-8"?>
<svg id="_1" data-name="1" xmlns="http://www.w3.org/2000/svg" viewBox="0 0 200 200">
  <defs>
    <style>
      .cls-1 {
        fill: #3a3a3a;
      }
    </style>
  </defs>
  <path class="cls-1" d="M152.56,21.77C138.04,7.26,119.02,0,100,0s-38.04,7.26-52.56,21.77c-23.13,23.13-29.16,58.42-14.1,85.49,17.28,31.06,66.66,92.74,66.66,92.74,0,0,49.38-61.68,66.66-92.74,15.06-27.07,9.03-62.36-14.1-85.49ZM100,119.47c-24.93,0-45.14-20.21-45.14-45.13s20.21-45.16,45.14-45.16,45.15,20.21,45.15,45.16-20.22,45.13-45.15,45.13Z"/>
  <g>
    <path class="cls-1" d="M74.87,49.41c-2.96-3.41-8.39-.18-5.96,5.19,1.62,3.58,4.74,12.33,9.1,18.64,4.36,6.3,9.01,5.63,13.7,7.16l3.37,1.74,23.07,26.53,4.67-4.06.02-.02c-.68-.79-21.66-24.92-29.96-34.46-8.21-9.44-16.57-19.06-18.01-20.72Z"/>
    <path class="cls-1" d="M130.23,54.39l-8.05,9.26c-.51.59-1.41.65-2,.14l-.29-.25c-.59-.51-.65-1.41-.14-2l8.09-9.3c1.33-1.52.7-2.87-.29-3.73-.98-.86-2.41-1.29-3.74.24l-8.09,9.3c-.51.59-1.41.65-2,.14l-.29-.25c-.59-.51-.66-1.41-.14-2l8.05-9.26c2.38-2.73-1.6-6.02-3.92-3.35-2.78,3.19-7.69,8.84-7.69,8.84-4.29,4.9-4.22,7.19-3.62,10.4.49,2.59,1.21,4.45-1.45,7.52l-3.93,4.52,4.12,4.74,4.5-5.18c2.66-3.06,4.61-2.6,7.24-2.48,3.27.16,5.55-.1,9.8-5.02,0,0,4.91-5.65,7.69-8.84,2.32-2.67-1.49-6.15-3.87-3.41Z"/>
    <polygon class="cls-1" points="92.44 84.16 74.68 104.59 79.37 108.67 96.76 88.66 93.18 84.55 92.44 84.16"/>
  </g>
</svg>