<?xml version="1.0" encoding="UTF-8"?>
<svg id="_1" data-name="1" xmlns="http://www.w3.org/2000/svg" viewBox="0 0 200 200">
  <defs>
    <style>
      .cls-1 {
        fill: #3a3a3a;
      }
    </style>
  </defs>
  <path class="cls-1" d="M196.78,173.9c-11.69-35.93-54.59-55.5-96.78-55.5S14.91,137.97,3.22,173.9C1.35,179.66.32,185.38,0,190.96h200c-.33-5.58-1.35-11.3-3.22-17.06Z"/>
  <g>
    <path class="cls-1" d="M124.74,74.7s.03-.04.04-.05c.54-.56,1.01-1.06,1.45-1.54.71-.8,1.42-1.64,2.12-2.54.07-.09.16-.17.24-.25,1.37-1.84,1.43-2.63,1.49-3.45.06-.82,0-2.27-1.05-2.71-.91-.38-2.53-.08-3.94,1.5-1.92,2.16-2.1,5.7-2.29,9.45-.03.5-.05,1-.08,1.5.69-.6,1.36-1.24,2.02-1.91Z"/>
    <path class="cls-1" d="M100.18,0C69.81,0,45.19,24.63,45.19,55s24.62,55,55,55,55-24.62,55-55S130.56,0,100.18,0ZM137.06,67.38c-.23,3.12-1.16,5.52-5.64,10.42-8.33,9.35-18.17,13.58-31.45,13.58-14.61,0-25.07-5.1-33.92-16.53-1.18-1.53-.9-3.73.63-4.91,1.53-1.18,3.73-.9,4.91.63,7.49,9.68,15.98,13.81,28.38,13.81,5.67,0,10.52-.88,14.83-2.74.75-1.74.88-4.25,1.02-6.89.24-4.57.5-9.74,4.05-13.74,3.21-3.62,8-4.95,11.89-3.3,3.6,1.52,5.63,5.22,5.3,9.67Z"/>
  </g>
</svg>