<?xml version="1.0" encoding="UTF-8"?>
<svg id="_1" data-name="1" xmlns="http://www.w3.org/2000/svg" viewBox="0 0 200 200">
  <defs>
    <style>
      .cls-1 {
        fill: #3a3a3a;
      }
    </style>
  </defs>
  <path class="cls-1" d="M175.7,24.29C159.55,8.13,138.23-.02,117.05,0c-21.18-.02-42.5,8.13-58.65,24.29-16.17,16.16-24.32,37.48-24.29,58.65-.02,14.79,4.05,29.59,11.94,42.72L5.87,165.83c-7.82,7.82-7.82,20.49,0,28.31,7.82,7.82,20.49,7.82,28.3,0l40.17-40.17c13.12,7.89,27.93,11.95,42.71,11.94,21.18.02,42.5-8.13,58.65-24.29,16.17-16.16,24.31-37.48,24.29-58.66.02-21.17-8.13-42.49-24.29-58.65ZM153.06,118.96c-9.98,9.97-22.92,14.89-36.01,14.92-13.08-.02-26.02-4.94-36.01-14.92-9.98-9.99-14.9-22.92-14.92-36.01.02-13.08,4.94-26.02,14.92-36,9.99-9.98,22.92-14.9,36.01-14.92,13.09.02,26.03,4.94,36.01,14.92,9.97,9.99,14.89,22.92,14.91,36-.02,13.09-4.94,26.03-14.92,36.01Z"/>
  <g>
    <path class="cls-1" d="M131.12,105.31c.48-4.08.36-6.96-5.44-12.71,0,0-6.64-6.64-10.4-10.4-3.14-3.14-7.83,1.33-4.61,4.54l10.89,10.89c.7.69.7,1.82,0,2.52l-.34.34c-.69.7-1.82.7-2.52,0l-10.94-10.94c-1.79-1.79-3.54-1.12-4.7.04-1.16,1.15-1.83,2.9-.03,4.69l10.94,10.94c.7.7.69,1.82,0,2.52l-.34.34c-.7.7-1.82.7-2.52,0l-10.89-10.89c-3.21-3.21-7.68,1.47-4.54,4.61,3.76,3.76,10.4,10.4,10.4,10.4,5.75,5.79,8.63,5.91,12.71,5.43,3.28-.38,5.68-1.12,9.28,2.48l31.66,31.66,5.52-5.52-31.66-31.66c-3.6-3.6-2.86-6-2.47-9.28Z"/>
    <path class="cls-1" d="M157.73,90.58c-11.1-11.1-22.41-22.41-24.36-24.36-4.01-4.01-10.52.5-7.01,7.01,2.34,4.34,7.01,15.02,13.02,22.53,6.01,7.51,11.77,6.26,17.78,7.76l4.37,1.89,22.28,22.28,5.49-5.49.03-.03c-.92-.93-20.38-20.38-31.6-31.6Z"/>
    <path class="cls-1" d="M113.12,49.9c5.12,0,9.89,1.39,14.03,3.8l2.28-3.92c-4.79-2.79-10.36-4.42-16.31-4.42-17.96,0-32.51,14.55-32.51,32.51,0,5.95,1.63,11.52,4.42,16.31l3.92-2.28c-2.4-4.14-3.8-8.91-3.8-14.03,0-7.73,3.13-14.71,8.19-19.78,5.07-5.07,12.05-8.19,19.78-8.19Z"/>
  </g>
</svg>