<?xml version="1.0" encoding="UTF-8"?>
<svg id="_1" data-name="1" xmlns="http://www.w3.org/2000/svg" viewBox="0 0 200 172">
  <defs>
    <style>
      .cls-1 {
        fill: #3a3a3a;
      }
    </style>
  </defs>
  <path class="cls-1" d="M185.15,14.97c-19.8-19.8-51.9-19.8-71.7,0-6.86,6.86-11.34,15.19-13.45,23.98-2.1-8.79-6.59-17.13-13.44-23.98C66.75-4.83,34.65-4.83,14.85,14.97c-19.8,19.8-19.8,51.9,0,71.7l51.13,51.13,24.28-27.93,1.18.61,5.66,6.51-24.15,27.78,27.05,27.05,27.33-27.33-32.88-37.82-5.33-2.76c-7.42-2.41-14.76-1.35-21.65-11.31-6.89-9.96-11.82-23.79-14.38-29.46-3.83-8.49,4.74-13.58,9.42-8.2,2.28,2.62,15.49,17.82,28.47,32.74,10.52,12.09,33.91,39,43.32,49.83l50.86-50.86c19.8-19.8,19.8-51.9,0-71.7ZM156.12,68.22c-4.39,5.05-12.15,13.98-12.15,13.98-6.72,7.79-10.32,8.19-15.49,7.94-4.16-.19-7.24-.91-11.44,3.92l-7.11,8.18-6.51-7.49,6.21-7.14c4.21-4.84,3.07-7.78,2.29-11.88-.96-5.08-1.06-8.71,5.72-16.45,0,0,7.76-8.92,12.15-13.97,3.67-4.22,9.95.99,6.19,5.3l-12.72,14.64c-.81.94-.71,2.35.22,3.17l.45.39c.93.82,2.35.72,3.16-.22l12.78-14.7c2.1-2.41,4.35-1.72,5.9-.37,1.56,1.35,2.55,3.49.46,5.9l-12.78,14.7c-.82.94-.71,2.35.22,3.16l.45.39c.94.81,2.35.72,3.17-.22l12.72-14.64c3.75-4.32,9.78,1.18,6.12,5.4Z"/>
</svg>